<svg width="320" height="180" viewBox="0 0 320 180" fill="none" xmlns="http://www.w3.org/2000/svg">
<path d="M110.708 165.417C110.777 165.36 110.833 165.281 110.833 165.242C110.833 165.203 110.933 164.96 111.056 164.702C111.333 164.117 112.228 163.21 112.842 162.892C113.089 162.764 113.348 162.63 113.417 162.593C113.803 162.386 113.925 162.333 114.02 162.333C114.078 162.332 114.219 162.284 114.333 162.225C115.073 161.846 115.347 161.797 116.75 161.795C117.208 161.795 117.667 161.794 118.125 161.793C118.35 161.91 118.575 162.027 118.8 162.144C119.349 162.429 119.647 162.669 120.401 163.434C120.911 163.952 121.59 164.731 121.909 165.167C122.857 166.458 123.015 166.661 123.604 167.34C123.914 167.698 124.167 168.021 124.167 168.06C124.167 168.126 124.817 168.744 125.375 169.208C126.086 169.8 126.234 169.917 126.276 169.917C126.301 169.917 126.54 170.061 126.807 170.238C127.073 170.415 127.385 170.588 127.5 170.623C127.615 170.658 127.896 170.773 128.125 170.878C128.354 170.984 128.879 171.132 129.292 171.208C129.704 171.284 130.199 171.381 130.391 171.423C130.849 171.524 132.65 171.522 133.103 171.42C133.478 171.336 134.15 171.188 134.5 171.113C135.064 170.991 136.839 170.057 137.164 169.711C137.273 169.595 137.405 169.5 137.456 169.5C137.508 169.5 137.998 169.034 138.546 168.464C139.66 167.305 140.092 166.807 140.251 166.5C140.31 166.385 140.465 166.168 140.596 166.018C140.726 165.867 140.833 165.694 140.833 165.632C140.833 165.571 140.889 165.475 140.956 165.419C141.212 165.206 143.082 161.697 143.083 161.426C143.083 161.363 143.162 161.184 143.258 161.029C143.354 160.874 143.5 160.569 143.584 160.353C143.667 160.136 143.814 159.752 143.91 159.5C144.007 159.248 144.123 158.977 144.168 158.897C144.213 158.817 144.25 158.697 144.25 158.629C144.25 158.561 144.323 158.363 144.413 158.19C144.502 158.017 144.621 157.687 144.676 157.458C144.732 157.229 144.844 156.892 144.926 156.708C145.008 156.525 145.12 156.187 145.175 155.958C145.23 155.729 145.346 155.335 145.434 155.083C145.668 154.411 145.831 153.834 145.889 153.477C145.916 153.304 145.972 153.143 146.011 153.118C146.051 153.094 146.083 152.98 146.083 152.866C146.083 152.752 146.135 152.557 146.199 152.433C146.262 152.309 146.341 152.002 146.375 151.75C146.408 151.498 146.459 151.254 146.488 151.208C146.574 151.072 146.749 150.407 146.829 149.917C146.921 149.347 147.063 148.761 147.162 148.542C147.203 148.45 147.257 148.244 147.282 148.083C147.335 147.744 147.638 146.213 147.761 145.667C147.807 145.46 147.896 144.935 147.959 144.5C148.089 143.594 148.221 142.947 148.304 142.814C148.335 142.763 148.39 142.438 148.426 142.09C148.462 141.743 148.57 141.046 148.666 140.542C148.873 139.459 148.96 138.889 149.124 137.542C149.289 136.188 149.391 135.522 149.494 135.125C149.541 134.942 149.58 134.531 149.581 134.212C149.583 133.893 149.637 133.274 149.703 132.837C149.945 131.235 150.083 130.092 150.207 128.667C150.276 127.865 150.354 127.039 150.378 126.833C150.403 126.627 150.455 126.008 150.494 125.458C150.532 124.908 150.604 124.289 150.654 124.083C150.703 123.877 150.745 123.333 150.749 122.875C150.752 122.417 150.793 121.667 150.839 121.208C150.885 120.75 150.959 119.794 151.003 119.083C151.046 118.373 151.117 117.473 151.161 117.083C151.204 116.694 151.242 115.636 151.245 114.733C151.248 113.83 151.287 112.912 151.332 112.691C151.443 112.147 151.59 108.759 151.685 104.542C151.759 101.307 151.771 97.0559 151.735 87.3332C151.721 83.4354 151.934 74.1032 152.08 72.2499C152.125 71.6769 152.163 70.7842 152.164 70.2659C152.166 69.7477 152.204 69.0727 152.25 68.7659C152.296 68.4592 152.372 67.4207 152.418 66.4582C152.464 65.4957 152.556 64.2207 152.623 63.6249C152.69 63.0291 152.783 61.9229 152.831 61.1666C152.878 60.4102 152.954 59.6829 153 59.5499C153.046 59.417 153.083 59.1146 153.083 58.8777C153.083 58.6409 153.12 58.2436 153.165 57.9944C153.211 57.7454 153.287 57.1666 153.336 56.7082C153.577 54.4222 153.715 53.3364 153.91 52.2082C153.957 51.9332 154.035 51.4082 154.084 51.0416C154.281 49.5506 154.312 49.3525 154.361 49.2727C154.389 49.227 154.452 48.8751 154.501 48.4906C154.593 47.7571 154.733 46.9619 154.953 45.9166C155.025 45.5729 155.124 45.0666 155.172 44.7916C155.22 44.5166 155.292 44.1602 155.33 43.9999C155.551 43.0796 155.598 42.8261 155.641 42.3342C155.668 42.0357 155.718 41.7541 155.752 41.7082C155.786 41.6624 155.842 41.4937 155.875 41.3332C155.909 41.1727 155.964 41.0041 155.998 40.9582C156.033 40.9124 156.083 40.7249 156.11 40.5416C156.155 40.2406 156.363 39.3441 156.593 38.4582C156.641 38.2749 156.724 37.8936 156.777 37.6109C156.831 37.3282 156.903 37.0687 156.938 37.0346C156.972 37.0001 157 36.8929 157 36.7962C157 36.6994 157.054 36.5429 157.12 36.4484C157.187 36.3541 157.267 36.0822 157.298 35.8447C157.33 35.6071 157.388 35.3927 157.428 35.3681C157.467 35.3436 157.5 35.2306 157.5 35.1171C157.5 35.0036 157.551 34.8276 157.612 34.7261C157.674 34.6247 157.794 34.2416 157.878 33.8749C157.963 33.5082 158.06 33.1704 158.093 33.1242C158.18 33.0034 158.414 32.3132 158.415 32.1724C158.416 32.1067 158.525 31.7692 158.658 31.4224C158.79 31.0754 158.963 30.6041 159.042 30.3749C159.121 30.1457 159.26 29.7707 159.352 29.5416C159.444 29.3124 159.538 29.0197 159.561 28.8911C159.585 28.7626 159.712 28.4464 159.844 28.1884C159.975 27.9304 160.083 27.6652 160.083 27.5991C160.083 27.5329 160.2 27.2302 160.343 26.9267C160.486 26.6232 160.631 26.2999 160.667 26.2082C160.991 25.3617 162.228 22.7399 162.966 21.3332C163.136 21.0096 163.576 20.2222 163.664 20.0832C163.708 20.0146 163.916 19.6582 164.126 19.2916C164.613 18.4444 164.577 18.5017 164.896 18.0459C165.045 17.8326 165.167 17.6239 165.167 17.5821C165.167 17.5401 165.279 17.3776 165.417 17.2209C165.554 17.0644 165.667 16.8821 165.667 16.8159C165.667 16.7497 165.76 16.6076 165.875 16.4999C165.99 16.3922 166.083 16.2694 166.083 16.2267C166.083 16.1842 166.261 15.9301 166.479 15.6619C166.697 15.3936 167.063 14.9236 167.292 14.6171C167.521 14.3106 167.98 13.7557 168.311 13.3841C168.643 13.0124 168.915 12.6779 168.915 12.6409C168.918 12.5052 171.07 10.3726 172 9.58339C172.527 9.13639 173.049 8.67205 173.16 8.55189C173.272 8.43155 173.409 8.33322 173.465 8.33322C173.522 8.33322 173.72 8.21139 173.907 8.06239C174.093 7.91339 174.439 7.66022 174.674 7.49989C174.91 7.33955 175.221 7.11189 175.364 6.99439C175.508 6.87672 175.794 6.69272 176 6.58589C176.5 6.32655 176.648 6.24239 177.042 5.99289C177.45 5.73455 179.214 4.86822 179.645 4.71489C179.817 4.65355 180.165 4.51005 180.417 4.39639C181.143 4.06872 181.358 3.98272 181.625 3.91305C181.763 3.87705 182.081 3.76939 182.332 3.67372C182.584 3.57805 182.853 3.49989 182.932 3.49989C183.01 3.49989 183.404 3.39122 183.808 3.25839C184.501 3.03039 185.084 2.89772 186.042 2.75089C186.45 2.68822 187.043 2.57755 187.875 2.40922C188.366 2.30955 191.417 2.12639 192.375 2.13905C193.61 2.15505 195.216 2.32305 195.839 2.50122C196.18 2.59855 196.608 2.70855 196.792 2.74539C197.197 2.82689 198.328 3.21355 198.645 3.37872C198.772 3.44472 198.927 3.49905 198.99 3.49939C199.238 3.50039 202.363 5.10789 202.708 5.41172C202.8 5.49239 202.931 5.58255 203 5.61205C203.124 5.66539 203.669 6.03389 204.277 6.47639C205.59 7.43155 207.75 9.70039 208.188 10.5832C208.244 10.6979 208.432 11.0347 208.604 11.3319C208.776 11.6291 208.917 11.9291 208.917 11.9986C208.918 12.0681 208.974 12.2322 209.042 12.3636C209.111 12.4947 209.167 12.6846 209.167 12.7852C209.167 12.8857 209.222 13.0409 209.289 13.1297C209.368 13.2334 209.411 13.4859 209.411 13.8332C209.411 14.1806 209.368 14.4331 209.289 14.5367C209.222 14.6256 209.167 14.7779 209.167 14.8749C209.167 14.9719 209.112 15.1242 209.044 15.2131C208.977 15.3022 208.921 15.4199 208.919 15.4749C208.911 15.7904 208.072 16.7036 207.239 17.3042C206.839 17.5934 205.645 18.1666 205.444 18.1666C205.374 18.1666 205.199 18.2176 205.054 18.2801C203.852 18.7999 202.167 18.6494 200.893 17.9084C200.423 17.6351 198.969 16.2206 198.625 15.7019C198.47 15.4692 198.28 15.2261 198.202 15.1614C198.124 15.0969 197.969 14.8986 197.857 14.7209C197.744 14.5431 197.511 14.2426 197.338 14.0529C197.165 13.8632 197.009 13.6637 196.991 13.6092C196.931 13.4279 195.609 11.8797 195.19 11.4997C194.632 10.9947 193.763 10.2989 193.641 10.2599C193.586 10.2426 193.485 10.1819 193.417 10.1251C192.96 9.74805 191.067 9.02622 190.125 8.86955C189.942 8.83905 189.211 8.79689 188.5 8.77572C187.156 8.73589 186.682 8.79089 185.792 9.09055C185.517 9.18322 185.161 9.29272 185 9.33355C184.702 9.40989 184.438 9.53739 183.91 9.85939C183.746 9.95955 183.486 10.1166 183.333 10.2082C183.179 10.2999 182.897 10.5156 182.705 10.6874C182.513 10.8592 182.323 11.0001 182.282 11.0001C182.152 11.0006 180.929 12.1649 180.872 12.3421C180.842 12.4361 180.648 12.6882 180.44 12.9024C180.232 13.1164 179.939 13.4807 179.789 13.7119C179.64 13.9431 179.457 14.1821 179.384 14.2429C179.31 14.3037 179.25 14.3909 179.25 14.4364C179.25 14.4819 179.081 14.7729 178.875 15.0832C178.669 15.3936 178.5 15.6729 178.5 15.7041C178.5 15.7354 178.406 15.8839 178.292 16.0342C178.177 16.1844 178.083 16.3412 178.083 16.3827C178.083 16.4242 178.02 16.5707 177.945 16.7082C177.517 17.4869 176.833 18.8721 176.833 18.9617C176.833 19.0192 176.74 19.2294 176.626 19.4289C176.512 19.6284 176.418 19.8772 176.418 19.9819C176.417 20.0867 176.351 20.2716 176.271 20.3929C176.137 20.5954 175.842 21.3519 175.401 22.6249C175.306 22.8999 175.143 23.3499 175.039 23.6249C174.935 23.8999 174.823 24.2936 174.791 24.4999C174.758 24.7062 174.704 24.9124 174.671 24.9582C174.637 25.0041 174.525 25.3229 174.422 25.6666C174.318 26.0102 174.204 26.3852 174.168 26.4999C174.132 26.6146 174.058 26.8769 174.004 27.0832C173.95 27.2896 173.852 27.6269 173.788 27.8332C173.723 28.0396 173.648 28.3769 173.62 28.5832C173.593 28.7896 173.538 29.0332 173.499 29.1249C173.355 29.4582 173.167 30.2404 173.167 30.5016C173.167 30.7331 173.049 31.1871 172.831 31.7916C172.798 31.8832 172.724 32.2021 172.666 32.4999C172.609 32.7977 172.509 33.3041 172.445 33.6249C172.381 33.9457 172.297 34.3769 172.259 34.5832C172.221 34.7896 172.166 35.0146 172.136 35.0832C172.107 35.1519 172.049 35.5082 172.007 35.8749C171.966 36.2416 171.87 36.7854 171.794 37.0832C171.719 37.3811 171.623 37.9062 171.582 38.2499C171.54 38.5936 171.428 39.3062 171.332 39.8332C171.108 41.0549 171.031 41.5576 170.878 42.7916C170.644 44.6731 170.601 44.9586 170.516 45.2082C170.469 45.3457 170.408 45.9086 170.381 46.4591C170.353 47.0096 170.296 47.5909 170.253 47.7507C170.211 47.9107 170.153 48.3387 170.126 48.7019C170.098 49.0651 170.053 49.3982 170.026 49.4422C169.999 49.486 169.945 49.9202 169.906 50.4069C169.868 50.8934 169.777 51.8916 169.704 52.6249C169.631 53.3582 169.54 54.4269 169.502 54.9999C169.464 55.5729 169.394 56.2291 169.347 56.4582C169.299 56.6874 169.257 57.2499 169.254 57.7082C169.25 58.1666 169.209 58.8977 169.161 59.3332C169.114 59.7687 169.041 60.6874 168.998 61.3749C168.955 62.0624 168.883 63.0374 168.839 63.5416C168.795 64.0457 168.756 65.1521 168.754 65.9999C168.751 66.8477 168.713 67.6729 168.669 67.8332C168.559 68.2376 168.405 72.0714 168.319 76.5832C168.247 80.2959 168.238 82.8999 168.258 92.9166C168.268 97.5656 168.086 106.564 167.962 107.583C167.931 107.835 167.872 108.773 167.831 109.667C167.789 110.56 167.715 112.173 167.665 113.25C167.616 114.327 167.539 115.396 167.494 115.625C167.387 116.17 167.264 117.47 167.162 119.124C167.117 119.858 167.043 120.589 166.999 120.749C166.954 120.91 166.918 121.255 166.917 121.517C166.917 121.778 166.878 122.172 166.831 122.392C166.743 122.803 166.654 123.582 166.502 125.25C166.454 125.777 166.381 126.34 166.339 126.5C166.247 126.849 166.035 128.201 165.926 129.125C165.883 129.492 165.771 130.223 165.676 130.75C165.582 131.277 165.445 132.083 165.372 132.542C165.298 133 165.206 133.506 165.167 133.667C165.086 133.998 164.952 134.714 164.88 135.208C164.819 135.617 164.599 136.612 164.489 136.978C164.444 137.126 164.374 137.501 164.334 137.811C164.295 138.121 164.2 138.581 164.123 138.833C163.963 139.361 163.87 139.74 163.713 140.5C163.651 140.798 163.563 141.154 163.516 141.292C163.339 141.812 163.255 142.137 163.204 142.5C163.151 142.875 162.941 143.551 162.829 143.708C162.796 143.754 162.743 143.96 162.711 144.167C162.68 144.373 162.588 144.748 162.507 145C162.426 145.252 162.273 145.74 162.167 146.083C162.061 146.427 161.901 146.914 161.812 147.167C161.723 147.419 161.612 147.775 161.565 147.958C161.519 148.142 161.425 148.423 161.356 148.583C161.287 148.744 161.184 149.044 161.125 149.25C161.022 149.613 160.879 150.032 160.741 150.375C160.255 151.585 159.917 152.487 159.917 152.577C159.917 152.69 159.657 153.265 159.073 154.444C158.895 154.803 158.75 155.148 158.75 155.211C158.75 155.425 156.266 160.215 155.741 161.011C155.631 161.178 155.476 161.422 155.396 161.553C154.955 162.274 154.627 162.779 154.003 163.695C153.604 164.281 152.286 165.996 151.686 166.708C150.614 167.982 148.051 170.558 147.541 170.875C147.404 170.96 147.142 171.166 146.958 171.333C146.775 171.5 146.544 171.69 146.444 171.756C145.622 172.299 144.567 173.045 144.49 173.137C144.438 173.199 144.335 173.251 144.261 173.253C144.186 173.255 143.995 173.368 143.837 173.503C143.678 173.639 143.497 173.75 143.435 173.75C143.373 173.75 143.203 173.839 143.057 173.947C142.662 174.242 140.304 175.417 140.108 175.417C140.045 175.417 139.849 175.49 139.673 175.58C139.497 175.67 139.119 175.824 138.834 175.923C138.549 176.022 138.216 176.154 138.095 176.217C137.974 176.281 137.816 176.332 137.743 176.333C137.671 176.333 137.583 176.361 137.549 176.396C137.514 176.43 137.311 176.502 137.097 176.555C136.883 176.608 136.502 176.714 136.25 176.791C135.776 176.935 134.851 177.129 134.125 177.235C133.896 177.269 133.667 177.323 133.616 177.354C133.314 177.543 129.607 177.869 127.792 177.866C126.115 177.864 124.087 177.616 123.458 177.337C123.367 177.296 123.198 177.243 123.083 177.219C122.476 177.094 121.878 176.913 121.557 176.757C121.359 176.662 121.152 176.583 121.097 176.583C121.042 176.583 120.661 176.414 120.25 176.208C119.839 176.002 119.455 175.833 119.396 175.833C119.337 175.833 119.151 175.74 118.982 175.625C118.814 175.51 118.624 175.417 118.561 175.417C118.498 175.417 118.299 175.305 118.119 175.169C117.939 175.033 117.76 174.92 117.721 174.919C117.66 174.917 116.911 174.429 115.9 173.734C115.731 173.617 115.351 173.31 115.058 173.052C114.764 172.794 114.504 172.583 114.48 172.583C114.41 172.583 113.143 171.302 112.917 171.003C112.802 170.852 112.612 170.61 112.493 170.468C112.164 170.07 111.632 169.316 111.518 169.083C111.461 168.969 111.343 168.762 111.255 168.625C111.167 168.487 111.092 168.281 111.087 168.167C111.082 168.052 111.023 167.885 110.956 167.796C110.889 167.707 110.833 167.553 110.833 167.453C110.833 167.352 110.777 167.224 110.708 167.167C110.614 167.088 110.583 166.876 110.583 166.292C110.583 165.708 110.614 165.495 110.708 165.417Z" fill="#FEFEFE"/>
<path d="M178.465 135.167C178.686 133.944 179.381 132.351 180.517 130.458C182.701 126.823 185.677 121.819 185.715 121.72C185.741 121.654 185.717 121.573 185.663 121.54C185.61 121.506 184.898 121.486 184.082 121.494C182.554 121.51 182.333 121.464 182.607 121.19C182.713 121.084 183.001 121.066 184.346 121.077C185.56 121.088 185.992 121.065 186.094 120.983C186.168 120.924 186.615 120.219 187.087 119.417C188.757 116.577 189.935 114.624 190.002 114.582C190.04 114.559 190.526 114.573 191.082 114.613C191.698 114.658 192.409 114.655 192.901 114.607C193.345 114.563 193.721 114.537 193.736 114.549C193.764 114.569 193.465 115.101 192.71 116.375C192.52 116.696 192.069 117.465 191.708 118.083C191.347 118.702 190.832 119.578 190.564 120.029C190.181 120.674 190.097 120.875 190.172 120.965C190.248 121.056 190.7 121.085 192.347 121.103C193.04 121.11 193.733 121.118 194.426 121.125C194.367 121.189 194.308 121.252 194.248 121.316C194.071 121.506 194.06 121.507 191.942 121.496C190.258 121.487 189.79 121.508 189.704 121.596C189.644 121.658 189.467 121.933 189.311 122.208C189.155 122.483 188.508 123.59 187.874 124.667C187.24 125.744 186.603 126.831 186.457 127.083C186.312 127.335 185.675 128.423 185.041 129.5C184.407 130.577 183.769 131.664 183.624 131.917C183.478 132.169 183.04 132.919 182.649 133.583C181.238 135.983 180.824 136.998 180.81 138.091C180.802 138.795 180.94 139.136 181.36 139.45C181.71 139.711 182.81 139.744 183.352 139.511C185.353 138.648 188.293 135.492 191.833 130.408C193.206 128.437 193.533 128.031 194.616 126.958C197.219 124.38 200.897 122.028 203.625 121.199C204.282 120.999 204.52 120.97 205.542 120.965C206.611 120.959 206.742 120.975 207.109 121.157C208.114 121.656 208.498 122.464 208.498 124.083C208.499 126.277 207.459 128.944 205.397 132.037C205.121 132.452 204.804 132.9 204.693 133.032C204.582 133.164 204.504 133.332 204.517 133.405C204.597 133.817 206.286 133.974 207.257 133.66C208.059 133.401 209.226 132.724 210.186 131.962C211.14 131.204 211.74 130.575 212.587 129.446C212.901 129.027 213.27 128.605 213.405 128.508C213.541 128.411 214.149 127.686 214.757 126.895C215.365 126.105 216.145 125.121 216.49 124.708C217.459 123.551 219.315 121.747 219.875 121.417C220.324 121.152 220.427 121.125 220.997 121.127C221.733 121.13 221.949 121.226 222.528 121.805C223.604 122.88 223.876 124.603 223.249 126.375C222.919 127.307 222.514 128.193 222.128 128.828C221.966 129.095 221.833 129.339 221.833 129.371C221.833 129.582 222.176 129.217 222.986 128.145C226.916 122.945 229.095 121.083 231.25 121.083C231.98 121.083 232.533 121.257 233.103 121.665C233.658 122.062 234.241 122.893 234.481 123.628C235.158 125.697 234.478 127.732 231.641 132.125C231.227 132.767 230.73 133.535 230.538 133.833C229.922 134.788 229.077 136.311 228.772 137.02C228.254 138.219 228.373 139.174 229.086 139.543C229.228 139.617 229.553 139.667 229.892 139.667C230.588 139.666 231.144 139.424 232.13 138.691C233.864 137.4 236.651 134.171 239.275 130.412C240.201 129.086 240.417 128.782 240.501 128.686C240.617 128.553 240.75 128.628 240.75 128.828C240.75 129.122 239.492 130.892 237.881 132.866C237.511 133.319 237.077 133.851 236.917 134.048C233.964 137.667 231.981 139.483 230.498 139.927C230.306 139.985 230.13 140.081 230.107 140.141C230.055 140.278 228.946 140.295 228.9 140.159C228.884 140.11 228.671 139.999 228.428 139.913C226.777 139.332 225.775 137.359 226.069 135.272C226.297 133.657 226.628 133.017 229.375 128.875C231.178 126.157 231.577 125.512 232.081 124.506C232.691 123.289 232.78 122.8 232.503 122.189C232.264 121.662 231.938 121.5 231.125 121.503C230.064 121.507 229.108 121.952 227.708 123.093C224.93 125.359 220.887 130.964 216.593 138.502C216.363 138.905 216.134 139.308 215.904 139.712C215.217 139.707 214.531 139.701 213.844 139.696C213.158 139.691 212.471 139.686 211.785 139.681C211.873 139.547 211.961 139.412 212.049 139.278C212.194 139.056 212.679 138.294 213.126 137.583C213.573 136.873 214.112 136.022 214.324 135.692C214.535 135.363 214.845 134.876 215.011 134.609C215.178 134.343 215.624 133.637 216.001 133.042C219.76 127.111 221.5 123.778 221.5 122.504C221.5 122.108 221.322 121.711 221.088 121.586C220.772 121.417 220.231 121.489 219.752 121.763C218.663 122.387 216.537 124.834 214.167 128.19C213.823 128.677 213.46 129.12 213.36 129.174C213.259 129.228 212.988 129.506 212.756 129.792C212.06 130.649 210.234 132.361 209.48 132.863C207.593 134.118 206.195 134.372 204.36 133.791C204.207 133.743 204.121 133.812 203.818 134.222C202.459 136.067 200.973 137.663 199.792 138.544C198.964 139.163 197.711 139.8 197.058 139.935C196.786 139.991 196.545 140.085 196.523 140.144C196.463 140.299 195.117 140.292 195.058 140.137C195.034 140.074 194.868 140 194.69 139.972C193.399 139.765 191.741 138.099 191.249 136.515C190.914 135.439 190.838 134.386 191.014 133.292C191.14 132.502 191.144 132.208 191.027 132.208C190.973 132.208 190.733 132.471 190.492 132.792C187.556 136.711 184.683 139.457 183.038 139.917C182.826 139.977 182.632 140.076 182.608 140.138C182.544 140.306 181.451 140.294 181.386 140.125C181.36 140.056 181.257 140 181.159 140C180.797 140 179.928 139.485 179.458 138.993C178.93 138.439 178.632 137.854 178.457 137.028C178.313 136.348 178.314 135.997 178.465 135.167ZM208.071 123.431C207.97 122.73 207.723 122.231 207.286 121.846C206.828 121.442 206.453 121.333 205.532 121.335C204.89 121.336 204.702 121.372 204.118 121.609C202.387 122.311 200.312 124.224 198.118 127.141C195.253 130.949 193.754 134.172 193.611 136.834C193.544 138.093 193.685 138.634 194.212 139.141C194.651 139.563 194.987 139.666 195.917 139.665C197.685 139.664 199.382 138.725 201.397 136.633C202.449 135.541 203.833 133.826 203.833 133.616C203.833 133.562 203.684 133.295 203.501 133.022C203.067 132.371 202.881 131.653 202.958 130.928C203.187 128.797 205.25 126.167 206.693 126.167C207.02 126.167 207.101 126.203 207.288 126.437C207.496 126.698 207.509 126.702 207.625 126.549C207.802 126.316 207.975 125.643 208.077 124.792C208.126 124.379 208.162 124.023 208.156 124C208.151 123.977 208.112 123.721 208.071 123.431Z" fill="#FEFEFE"/>
</svg>
